<?xml version="1.0" encoding="utf-8"?>
<!-- Generator: Adobe Illustrator 16.0.0, SVG Export Plug-In . SVG Version: 6.00 Build 0)  -->
<!DOCTYPE svg PUBLIC "-//W3C//DTD SVG 1.1//EN" "http://www.w3.org/Graphics/SVG/1.1/DTD/svg11.dtd">
<svg version="1.1" id="Layer_1" xmlns="http://www.w3.org/2000/svg" xmlns:xlink="http://www.w3.org/1999/xlink" x="0px" y="0px"
	 width="25px" height="25px" viewBox="77.5 60.532 25 25" enable-background="new 77.5 60.532 25 25" xml:space="preserve">
<path fill="#FFFFFF" d="M99.115,76.325c-0.607,1.966-1.271,2.981-3.16,2.981c-2.782,0-3.941-2.496-3.941-6.516
	c0-4.021,1.159-6.528,3.941-6.528c1.89,0,2.663,1.182,3.215,3.147c0.11,0.386,0.376,0.542,0.807,0.442l1.523-0.419
	c-0.673-3.357-2.706-5.235-5.545-5.235c-2.771,0-4.648,1.667-5.654,4.439l-3.159,8.715c-0.144,0.497-0.618,0.563-0.817,0
	L81.763,65.08c-0.177-0.486-0.43-0.596-0.817-0.596h-1.977l6.495,16.336h2.396l2-5.181c-0.154-1.491-0.211-2.871,0.176-4.473
	c-0.143,1.512-0.198,2.672,0.111,4.495c0.607,3.601,2.694,5.711,5.809,5.711c2.762,0,4.772-1.823,5.49-4.993l-1.557-0.508
	C99.601,75.783,99.214,75.872,99.115,76.325z"/>
<path fill="#FFFFFF" d="M99.107,76.348c-0.606,1.962-1.268,2.976-3.152,2.976c-2.777,0-3.935-2.491-3.935-6.503
	s1.157-6.514,3.935-6.514c1.885,0,2.656,1.18,3.207,3.142c0.11,0.385,0.375,0.54,0.805,0.44l1.521-0.418
	c-0.672-3.351-2.701-5.225-5.533-5.225c-2.766,0-4.64,1.665-5.643,4.431l-3.153,8.696c-0.143,0.496-0.618,0.562-0.815,0
	l-4.553-12.245c-0.177-0.485-0.43-0.595-0.815-0.595h-1.973l6.481,16.301h2.392l1.995-5.169c-0.153-1.488-0.21-2.866,0.176-4.464
	c-0.143,1.51-0.197,2.667,0.111,4.485c0.605,3.594,2.689,5.699,5.797,5.699c2.755,0,4.762-1.818,5.478-4.982l-1.554-0.507
	C99.592,75.808,99.207,75.896,99.107,76.348z"/>
<path fill="#FFFFFF" d="M90.035,71.166c-0.204,1.378-0.465,2.002-0.201,4.477l-1.975,5.178C87.86,80.82,86.784,74.901,90.035,71.166
	z"/>
<path fill="#FFFFFF" d="M95.949,67.102c0.411-0.018,0.833,0.029,1.267,0.321c0.47,0.279,0.612,0.677,0.428,1.134l-0.349,0.85
	c-0.16,0.411-0.494,0.571-0.76,0.542c-0.31-0.006-0.465-0.172-0.678-0.189c-0.666-0.005-1.301,1.236-1.282,2.923
	c0.002,1.693,0.649,3.189,1.303,3.189c0.221,0.006,0.362-0.19,0.683-0.208c0.256-0.006,0.613,0.143,0.768,0.545l0.357,0.832
	c0.189,0.481,0.035,0.88-0.416,1.159c-0.439,0.285-0.85,0.333-1.265,0.333c-1.759-0.047-3.27-2.493-3.277-5.719
	C92.708,69.611,94.191,67.145,95.949,67.102z"/>
</svg>
